<?xml version="1.0" standalone="no"?>
<!DOCTYPE svg PUBLIC "-//W3C//DTD SVG 20010904//EN"
 "http://www.w3.org/TR/2001/REC-SVG-20010904/DTD/svg10.dtd">
<svg version="1.0" xmlns="http://www.w3.org/2000/svg"
 width="400.000000pt" height="400.000000pt" viewBox="0 0 400.000000 400.000000"
 preserveAspectRatio="xMidYMid meet">

<g transform="translate(0.000000,400.000000) scale(0.100000,-0.100000)"
fill="#000000" stroke="none">
<path d="M756 3204 l-26 -27 0 -958 0 -958 33 -6 c17 -3 153 -4 302 -3 l270 3
12 25 c6 14 15 48 18 75 l7 50 -71 35 c-39 18 -71 39 -71 44 0 14 38 76 46 76
4 0 31 -25 61 -56 48 -50 57 -56 84 -50 37 7 89 42 89 60 0 7 -13 43 -30 79
-16 37 -30 73 -30 80 0 11 58 37 84 37 3 0 6 -29 6 -64 0 -36 4 -76 10 -90 17
-45 102 -72 150 -46 10 5 27 34 38 62 11 29 25 65 31 81 l11 28 40 -21 41 -21
-56 -62 c-63 -71 -69 -99 -29 -146 34 -41 61 -39 125 9 64 48 83 50 104 10 25
-49 20 -57 -42 -70 -104 -22 -123 -30 -124 -53 -2 -59 4 -113 14 -119 7 -4 47
-8 90 -8 75 0 78 -1 88 -27 12 -32 8 -37 -68 -77 -46 -25 -59 -37 -61 -58 -6
-48 95 -168 140 -168 9 0 41 34 72 75 74 98 98 89 58 -21 -35 -95 -35 -102 -4
-118 45 -23 148 -39 172 -26 18 10 20 21 20 104 0 89 1 94 23 100 12 3 25 6
29 6 4 0 26 -36 48 -80 34 -68 44 -80 65 -80 42 0 165 88 165 118 0 10 -27 44
-60 77 -33 33 -60 65 -60 72 0 26 23 23 94 -13 40 -20 80 -35 88 -31 17 6 58
124 58 165 0 48 -13 56 -97 61 l-78 6 -3 36 c-3 35 -3 36 65 62 l68 27 287 0
c242 0 287 2 298 15 10 12 10 18 0 30 -11 14 -53 15 -319 13 l-306 -3 -80 -35
-80 -35 -3 -71 c-2 -51 1 -74 11 -82 8 -7 49 -15 92 -19 l77 -6 -5 -40 c-3
-22 -9 -43 -14 -48 -5 -5 -37 5 -73 22 -35 16 -73 29 -83 27 -11 -2 -34 -20
-50 -41 -38 -46 -32 -70 32 -119 67 -50 72 -64 36 -94 -16 -13 -35 -24 -42
-24 -6 0 -26 32 -44 70 -17 39 -37 74 -43 79 -7 6 -38 4 -84 -6 l-72 -16 0
-96 0 -97 -40 4 c-22 2 -42 7 -44 11 -3 3 8 45 24 91 l28 85 -26 22 c-33 28
-87 40 -107 23 -7 -6 -28 -33 -45 -60 -38 -59 -56 -67 -87 -39 -37 35 -29 52
47 103 38 25 70 50 70 55 0 18 -41 106 -53 113 -7 4 -38 8 -69 8 -71 0 -88 7
-88 34 0 19 10 24 82 39 45 9 85 23 90 30 12 20 -3 88 -31 141 -38 72 -50 76
-108 38 -138 -91 -162 -74 -57 40 24 26 44 56 44 66 0 34 -141 119 -178 108
-10 -3 -27 -33 -40 -68 -38 -103 -41 -108 -59 -108 -37 0 -44 16 -51 106 l-7
89 -31 3 c-41 4 -154 -25 -176 -45 -25 -22 -23 -32 17 -115 35 -71 35 -87 -2
-88 -11 0 -83 77 -83 90 0 4 -12 12 -27 19 -26 12 -30 11 -61 -25 -39 -46 -90
-136 -84 -152 2 -6 32 -20 67 -32 76 -25 87 -37 79 -79 l-7 -31 -251 2 -251 3
-3 919 c-1 693 1 922 10 933 9 11 40 14 152 11 l141 -3 5 -532 c4 -396 8 -535
17 -544 13 -13 25 -8 213 79 41 19 104 48 139 64 80 37 121 46 122 27 1 -8 0
-41 -1 -74 -1 -33 3 -73 9 -89 10 -24 15 -28 40 -23 15 3 52 17 82 30 179 81
390 167 408 167 20 0 21 -5 21 -95 0 -116 9 -125 85 -90 216 99 428 186 440
181 12 -4 15 -25 15 -86 0 -90 17 -120 67 -120 34 0 593 280 593 297 0 6 -15
13 -32 15 -30 3 -33 7 -40 47 -9 55 -31 89 -64 97 -32 8 -116 -20 -309 -103
-82 -35 -156 -67 -162 -70 -9 -4 -13 7 -13 33 -1 60 -16 125 -31 135 -33 21
-90 6 -285 -76 -112 -47 -208 -85 -213 -85 -6 0 -9 22 -9 49 2 63 -18 110 -49
117 -57 15 -127 -9 -431 -147 -24 -11 -73 -27 -110 -36 -78 -18 -154 -46 -267
-98 -44 -21 -99 -46 -122 -56 l-43 -18 0 490 c0 532 0 532 -55 557 -16 8 -81
12 -174 12 -147 0 -149 0 -175 -26z m1368 -740 c3 -9 6 -40 6 -69 l0 -54 -57
-16 c-54 -16 -121 -42 -218 -85 -22 -10 -62 -28 -90 -40 -27 -12 -67 -28 -88
-36 l-38 -13 3 71 3 72 215 92 c118 51 225 93 236 93 12 1 25 -6 28 -15z m536
-4 c6 -11 10 -44 8 -72 l-3 -51 -55 -17 c-57 -18 -142 -51 -195 -75 -16 -8
-70 -32 -118 -54 -49 -23 -93 -41 -97 -41 -10 0 -17 90 -10 120 4 16 48 39
190 101 185 81 249 107 262 108 4 1 12 -8 18 -19z m550 1 c5 -11 10 -42 10
-68 l0 -49 -202 -101 c-202 -101 -266 -129 -272 -122 -2 2 -7 40 -10 85 l-7
81 53 23 c29 12 67 28 83 36 122 54 312 133 322 134 7 0 17 -9 23 -19z"/>
</g>
</svg>
