<?xml version="1.0" standalone="no"?>
<!DOCTYPE svg PUBLIC "-//W3C//DTD SVG 20010904//EN"
 "http://www.w3.org/TR/2001/REC-SVG-20010904/DTD/svg10.dtd">
<svg version="1.0" xmlns="http://www.w3.org/2000/svg"
 width="8947.000000pt" height="3087.000000pt" viewBox="0 0 8947.000000 3087.000000"
 preserveAspectRatio="xMidYMid meet">
<metadata>
Created by potrace 1.16, written by Peter Selinger 2001-2019
</metadata>
<g transform="translate(0.000000,3087.000000) scale(0.100000,-0.100000)"
fill="#000000" stroke="none">
<path d="M2651 30859 c-327 -64 -577 -325 -630 -659 -15 -94 -15 -24004 0
-24086 27 -148 127 -265 274 -320 48 -18 154 -19 3350 -21 1815 -1 3330 -2
3368 -3 79 -1 200 36 334 101 335 164 568 479 634 859 21 119 16 345 -9 475
-57 291 -205 584 -336 664 -17 11 -320 140 -671 286 -608 252 -642 268 -688
313 -84 82 -125 203 -97 286 23 71 440 789 480 828 70 68 208 87 308 42 22
-11 367 -298 766 -639 804 -687 794 -680 971 -716 83 -17 124 -20 240 -16 202
7 333 48 488 151 243 161 420 471 404 706 -5 69 -34 148 -368 1010 -355 916
-362 936 -361 1005 0 77 19 140 58 197 53 76 63 80 530 178 238 49 449 90 471
90 88 0 190 -80 241 -189 24 -53 27 -82 97 -1040 79 -1075 74 -1032 145 -1136
56 -82 160 -184 245 -240 292 -195 643 -207 952 -34 102 57 273 226 321 316
21 40 132 387 317 988 156 509 293 939 304 954 30 42 95 97 143 123 32 16 60
22 108 22 65 0 67 -1 478 -207 405 -204 414 -209 443 -255 16 -25 34 -62 39
-82 14 -50 12 -139 -3 -191 -10 -30 -190 -286 -587 -829 -315 -432 -581 -803
-591 -826 -53 -117 -78 -306 -61 -464 22 -212 99 -382 241 -532 130 -138 266
-218 446 -263 184 -47 339 -40 441 20 24 14 379 278 789 586 410 308 763 568
783 577 23 9 66 16 112 16 63 1 85 -4 133 -27 31 -16 68 -43 81 -60 13 -18
114 -211 225 -430 187 -369 201 -401 201 -451 0 -29 -7 -73 -15 -96 -20 -56
-76 -131 -122 -163 -26 -18 -312 -110 -938 -302 -527 -162 -919 -287 -945
-302 -113 -66 -263 -273 -330 -456 -32 -89 -49 -167 -60 -289 -20 -210 14
-407 100 -583 131 -270 357 -440 666 -502 225 -45 910 -5 1584 93 l234 34 29
-28 c49 -46 124 -159 156 -235 33 -82 64 -219 59 -268 -3 -32 -18 -41 -787
-494 -715 -421 -790 -467 -855 -531 -228 -223 -350 -493 -363 -800 -9 -211 23
-367 112 -545 55 -108 60 -114 405 -524 303 -359 374 -433 488 -509 264 -175
597 -223 897 -129 160 51 312 143 434 263 59 57 1060 1192 1118 1267 10 13 18
12 67 -10 31 -15 58 -32 61 -39 3 -7 -89 -296 -205 -643 -233 -698 -237 -714
-227 -925 13 -290 123 -550 316 -753 124 -130 268 -223 431 -277 36 -12 279
-58 540 -103 451 -77 482 -81 620 -80 122 0 161 5 243 26 385 102 686 401 814
812 l28 90 5 922 5 921 24 -12 c21 -12 55 -116 302 -922 175 -575 289 -933
310 -974 129 -251 389 -473 662 -566 212 -72 474 -75 682 -7 97 31 900 448
1012 525 84 58 202 178 263 268 222 327 250 809 68 1175 -17 33 -280 403 -585
823 -408 562 -553 768 -551 785 2 12 8 21 14 20 5 -1 342 -214 749 -474 407
-260 767 -485 800 -500 312 -141 708 -131 1015 27 161 83 313 221 404 367 63
102 442 933 472 1036 114 393 -11 825 -325 1124 -92 88 -232 183 -325 221 -33
14 -457 134 -941 267 -484 132 -886 246 -893 252 -22 18 -90 161 -122 255 -71
211 -78 441 -23 679 l17 73 75 29 c42 16 448 176 902 354 l826 325 3309 11
c2290 8 3323 15 3354 23 258 62 390 351 270 594 -39 80 -128 164 -207 196 -55
21 -73 23 -328 26 -148 2 -1682 -1 -3408 -8 -2989 -10 -3140 -12 -3195 -29
-31 -10 -466 -179 -967 -375 -500 -196 -962 -377 -1025 -402 -237 -93 -292
-156 -385 -444 -73 -228 -105 -432 -105 -677 0 -423 112 -795 344 -1143 83
-123 145 -189 212 -223 27 -14 461 -138 964 -277 503 -138 938 -258 965 -266
111 -32 218 -172 218 -287 0 -48 -19 -95 -187 -463 -103 -225 -199 -424 -213
-443 -32 -41 -115 -81 -185 -88 -109 -11 -106 -12 -980 546 -450 287 -837 528
-860 537 -63 22 -181 28 -283 15 -497 -66 -835 -492 -785 -988 12 -111 48
-245 83 -303 12 -19 273 -381 580 -804 308 -423 566 -787 574 -810 9 -23 16
-74 16 -116 1 -85 -25 -160 -71 -203 -15 -14 -205 -119 -422 -233 l-395 -208
-70 -1 c-89 0 -147 28 -219 106 l-51 55 -269 885 c-148 486 -279 914 -291 951
-52 154 -230 335 -432 437 -221 111 -510 119 -746 21 -205 -85 -403 -269 -458
-424 -18 -53 -19 -92 -19 -1043 l0 -988 -28 -60 c-16 -33 -41 -75 -57 -93 -32
-39 -102 -81 -150 -92 -44 -10 -894 129 -949 155 -73 35 -129 122 -148 232
l-11 68 251 755 c138 415 253 778 257 805 9 71 -17 184 -60 261 -100 179 -343
383 -570 477 -180 76 -334 107 -524 107 -135 0 -193 -16 -277 -72 -19 -12
-307 -333 -640 -713 -333 -379 -624 -710 -647 -734 -58 -61 -135 -95 -195 -87
-87 12 -115 38 -413 391 -156 185 -293 352 -304 373 -15 27 -20 56 -20 107 0
59 5 81 33 137 18 36 47 79 65 95 18 15 408 249 867 518 886 521 921 544 973
647 50 98 61 179 61 433 1 203 -2 242 -22 335 -92 422 -329 778 -673 1012 -78
53 -177 88 -250 88 -27 0 -143 -16 -258 -35 -489 -80 -907 -123 -1276 -131
-289 -6 -297 -5 -327 56 -22 43 -24 156 -5 203 l14 32 844 259 c464 142 871
272 904 288 272 136 497 402 588 693 39 126 50 200 50 340 0 144 -17 240 -62
364 -34 91 -439 890 -496 976 -21 33 -80 101 -129 151 -140 139 -295 225 -505
282 -84 22 -117 25 -266 26 -177 1 -267 -12 -393 -55 -151 -52 -191 -79 -895
-607 -385 -288 -700 -522 -702 -520 -1 2 -5 14 -8 28 -5 21 80 143 557 796
551 756 590 814 637 951 83 241 80 570 -6 799 -80 212 -220 395 -394 513 -95
65 -931 477 -1024 505 -124 38 -217 49 -362 43 -263 -10 -494 -104 -705 -288
-92 -80 -206 -226 -267 -344 -15 -27 -153 -461 -308 -963 -205 -668 -286 -916
-299 -924 -9 -5 -19 -8 -21 -6 -2 2 -34 409 -70 903 -36 495 -72 927 -79 960
-132 557 -649 950 -1179 895 -98 -10 -967 -189 -1052 -216 -143 -47 -296 -143
-410 -258 -160 -161 -260 -350 -312 -588 -26 -122 -24 -394 5 -498 11 -41 167
-455 346 -919 243 -629 323 -847 313 -853 -6 -5 -21 -7 -32 -5 -12 2 -339 275
-728 608 -768 656 -779 664 -973 728 -148 49 -256 64 -429 58 -169 -6 -261
-25 -404 -85 -165 -69 -334 -203 -435 -346 -58 -81 -466 -793 -522 -911 -61
-127 -85 -232 -91 -395 -6 -150 4 -231 42 -365 80 -275 284 -539 524 -677 30
-17 311 -138 625 -269 465 -193 573 -242 583 -261 24 -48 43 -144 43 -218 0
-138 -48 -241 -142 -304 l-53 -36 -2837 0 c-2490 1 -2843 2 -2894 16 -193 50
-317 203 -345 426 -5 42 -16 96 -24 119 -13 36 -15 1378 -15 11121 0 10964 0
11079 19 11117 11 21 25 69 31 107 25 160 33 192 62 251 31 64 108 148 168
185 78 47 138 60 285 64 77 1 156 7 175 13 49 15 2071 15 2120 0 19 -6 96 -12
170 -13 111 -1 147 -6 203 -25 153 -52 267 -185 296 -346 44 -244 41 124 49
-6345 l8 -6095 23 -75 c67 -222 215 -374 416 -425 85 -22 235 -19 331 5 53 14
177 68 384 169 482 236 1575 749 3440 1616 553 257 1076 500 1164 541 l159 74
36 -17 c52 -26 71 -67 82 -179 6 -53 19 -119 29 -147 17 -45 22 -120 45 -696
13 -356 29 -689 34 -741 19 -182 80 -310 205 -435 136 -136 283 -195 483 -195
122 0 230 20 329 61 38 16 1055 529 2260 1140 l2189 1110 35 -18 c50 -26 71
-70 82 -171 5 -48 15 -109 23 -137 10 -36 21 -236 40 -710 17 -424 31 -683 39
-725 21 -98 53 -173 107 -254 82 -124 197 -212 337 -261 61 -22 102 -28 196
-32 137 -6 224 6 336 47 41 15 1066 530 2278 1144 2391 1212 2229 1136 2286
1079 31 -30 56 -108 56 -171 0 -24 7 -71 15 -105 11 -45 22 -241 41 -720 14
-363 30 -684 35 -715 25 -137 113 -299 208 -385 126 -114 256 -166 435 -174
135 -7 223 6 336 47 41 15 1076 535 2300 1155 1224 621 2964 1497 3866 1947
1826 910 1706 844 1776 985 32 65 33 73 33 183 0 106 -2 120 -28 172 -42 85
-116 161 -195 200 -64 32 -72 33 -184 33 l-117 0 -706 -352 c-388 -194 -705
-352 -706 -350 0 1 -18 418 -39 927 -43 1026 -40 1003 -117 1159 -50 102 -178
231 -280 284 -181 94 -429 104 -639 26 -32 -12 -1084 -542 -2337 -1177 -1253
-635 -2279 -1153 -2281 -1151 -2 2 -19 405 -39 894 -39 988 -37 968 -114 1124
-50 102 -178 231 -280 284 -181 94 -429 104 -639 26 -32 -12 -1080 -539 -2327
-1172 -1247 -632 -2270 -1147 -2273 -1144 -3 3 -21 391 -39 864 -25 618 -39
882 -50 943 -48 253 -206 440 -447 528 -68 25 -84 27 -238 27 -158 0 -169 -2
-257 -31 -61 -21 -973 -478 -2745 -1376 -2151 -1091 -2753 -1392 -3183 -1591
-292 -135 -569 -258 -615 -273 -93 -29 -195 -77 -274 -130 -28 -18 -256 -128
-506 -245 -919 -427 -2668 -1243 -3115 -1454 -253 -120 -485 -225 -515 -235
-30 -10 -77 -28 -104 -40 -68 -31 -144 -25 -186 15 -36 34 -52 101 -40 165 14
71 11 151 -7 210 -15 51 -16 491 -19 6010 -3 4374 -7 5975 -15 6030 -50 332
-290 577 -624 635 -77 13 -323 15 -2009 14 -1056 -1 -1941 -5 -1965 -10z
m16089 -9424 c41 -1046 42 -928 -4 -1020 -26 -53 -58 -98 -100 -139 -57 -57
-87 -74 -461 -262 -220 -111 -431 -212 -470 -224 -93 -30 -196 -82 -274 -139
-37 -26 -911 -476 -2045 -1051 l-1981 -1005 -7 70 c-4 38 -21 437 -39 885
l-31 815 21 55 c26 68 101 168 161 214 25 19 1204 622 2620 1340 l2575 1305 2
-42 c2 -23 16 -384 33 -802z m5676 -26 c19 -475 32 -882 29 -903 -10 -69 -72
-171 -144 -237 -59 -56 -106 -82 -476 -268 -225 -113 -444 -218 -486 -233 -42
-16 -120 -56 -175 -90 -54 -34 -997 -518 -2094 -1074 -1939 -983 -1995 -1011
-1997 -985 -4 39 -62 1529 -65 1656 -3 107 -2 112 31 179 22 45 56 91 100 135
66 67 70 70 721 399 360 182 1524 772 2585 1310 1062 539 1931 978 1933 977 1
-1 18 -391 38 -866z m5690 0 c19 -475 32 -882 29 -903 -10 -69 -72 -171 -144
-237 -63 -59 -168 -113 -2646 -1369 l-2580 -1308 -2 32 c-4 48 -63 1538 -65
1656 -3 101 -2 108 31 174 22 45 56 91 100 135 66 67 70 69 741 409 371 188
1535 777 2585 1310 1051 533 1911 968 1913 967 1 -1 18 -391 38 -866z"/>
<path d="M484 26000 c-79 -12 -147 -37 -211 -79 -137 -89 -193 -206 -193 -407
0 -159 42 -268 140 -363 90 -87 258 -143 367 -122 95 18 133 61 133 147 0 43
-4 51 -42 87 -24 22 -81 61 -128 86 -103 56 -134 95 -127 158 6 58 30 91 85
115 57 26 138 21 203 -12 26 -14 127 -104 243 -217 268 -260 356 -325 486
-359 132 -34 236 19 271 138 14 49 21 570 9 658 -18 124 -68 180 -164 180
-115 0 -150 -48 -192 -260 -26 -135 -42 -170 -74 -170 -20 0 -81 51 -210 175
-108 104 -148 134 -236 178 -121 61 -248 85 -360 67z"/>
<path d="M1058 24791 c-53 -17 -86 -50 -110 -109 -19 -49 -22 -75 -22 -192 0
-118 3 -142 23 -193 31 -78 80 -112 160 -112 90 0 155 52 181 144 13 47 13
275 0 322 -14 50 -49 99 -86 121 -37 21 -109 31 -146 19z"/>
<path d="M243 23730 c-53 -11 -92 -31 -123 -65 -20 -22 -25 -37 -25 -80 0 -48
4 -58 35 -90 19 -20 62 -56 95 -80 74 -52 166 -150 219 -230 65 -99 97 -134
141 -155 104 -50 221 2 232 103 4 36 -1 59 -31 124 -38 85 -44 117 -23 130 6
4 192 10 412 13 367 5 404 7 449 25 71 29 108 79 108 145 0 67 -21 96 -97 135
l-60 30 -645 2 c-355 0 -664 -3 -687 -7z"/>
<path d="M257 22479 c-118 -17 -172 -66 -164 -148 6 -57 29 -85 117 -148 99
-70 162 -134 220 -223 112 -170 135 -190 226 -190 85 0 164 67 164 140 0 12
-13 54 -29 93 -16 40 -32 81 -35 93 -14 47 1 49 413 55 241 4 399 10 419 17
104 35 159 98 149 172 -7 55 -32 86 -95 117 l-57 28 -635 1 c-349 1 -661 -2
-693 -7z"/>
<path d="M739 21481 c-213 -23 -421 -96 -514 -182 -99 -91 -145 -204 -145
-354 0 -220 98 -366 303 -448 93 -37 183 -50 306 -44 181 8 301 62 431 191 63
63 70 67 70 45 0 -44 48 -125 92 -155 35 -25 51 -29 107 -29 86 1 144 27 220
100 120 114 167 280 126 440 -43 164 -188 300 -397 371 -161 54 -424 83 -599
65z m-13 -386 c129 -38 171 -160 85 -246 -84 -84 -274 -81 -366 6 -84 79 -16
201 135 241 61 17 87 17 146 -1z m606 -46 c92 -59 115 -131 60 -186 -25 -24
-175 -123 -187 -123 -3 0 -5 44 -5 98 0 54 -5 125 -12 157 -11 56 -10 59 12
77 31 25 67 18 132 -23z"/>
<path d="M36030 20813 c-114 -11 -260 -39 -363 -69 -284 -81 -515 -202 -724
-378 -223 -187 -467 -551 -587 -879 -114 -309 -152 -588 -143 -1055 5 -298 16
-376 73 -555 126 -391 340 -654 659 -811 274 -135 501 -172 887 -146 393 26
704 149 994 393 192 161 365 379 474 597 79 156 103 244 84 295 -11 27 -79 54
-176 70 -51 8 -178 29 -283 46 -229 37 -263 35 -316 -21 -19 -20 -55 -77 -79
-126 -149 -309 -367 -488 -669 -549 -281 -57 -562 66 -710 309 -108 179 -167
470 -142 705 26 260 115 596 210 793 61 130 155 262 256 364 200 203 417 294
700 294 328 0 491 -114 622 -430 66 -162 68 -163 362 -144 295 18 355 31 407
85 27 29 29 35 28 112 -1 66 -8 104 -37 193 -115 348 -319 589 -632 747 -250
125 -609 189 -895 160z"/>
<path d="M39410 20807 c-57 -16 -106 -45 -146 -89 -37 -40 -330 -452 -379
-534 -45 -74 -46 -125 -2 -158 26 -19 42 -21 195 -21 l168 0 78 39 c51 25 103
62 150 105 39 37 136 125 216 196 207 182 369 342 376 370 8 32 -3 63 -29 79
-32 20 -563 30 -627 13z"/>
<path d="M62240 20730 c-150 -7 -189 -20 -215 -70 -9 -17 -34 -117 -56 -223
-22 -105 -107 -500 -189 -877 -215 -986 -311 -1437 -374 -1750 -130 -651 -140
-723 -112 -777 26 -52 58 -57 363 -56 363 1 366 3 417 210 35 144 477 2283
505 2448 27 153 76 381 126 590 40 165 65 314 65 388 0 40 -5 54 -28 77 -24
23 -40 29 -93 34 -116 10 -272 12 -409 6z"/>
<path d="M68491 20729 c-134 -8 -172 -19 -194 -53 -23 -35 -62 -168 -97 -331
-128 -602 -196 -885 -212 -885 -20 0 -56 26 -119 85 -208 195 -435 262 -800
236 -254 -19 -430 -88 -617 -242 -200 -165 -417 -501 -516 -801 -122 -368
-139 -877 -40 -1174 114 -340 346 -562 659 -630 108 -23 380 -24 480 -1 122
28 240 76 347 143 57 35 108 64 115 64 18 0 43 -29 43 -51 0 -35 28 -76 64
-93 29 -13 74 -16 290 -16 285 0 305 4 349 61 15 21 37 79 56 149 26 98 213
953 630 2885 93 429 113 542 104 589 -9 47 -37 56 -209 66 -88 5 -170 9 -184
8 -14 0 -81 -4 -149 -9z m-1063 -1570 c157 -53 277 -196 329 -389 24 -91 24
-342 0 -464 -64 -320 -224 -597 -405 -703 -311 -183 -656 -38 -728 306 -21
103 -21 358 1 476 21 117 73 271 128 381 167 331 422 480 675 393z"/>
<path d="M83600 20730 c-154 -7 -182 -14 -217 -52 -44 -47 -10 107 -428 -1905
-216 -1039 -335 -1633 -335 -1671 0 -69 16 -95 68 -114 52 -18 551 -19 603 0
47 17 84 57 102 112 15 44 352 1638 517 2440 212 1030 217 1062 199 1117 -18
56 -40 61 -309 77 -30 1 -120 0 -200 -4z"/>
<path d="M56555 20715 c-21 -8 -47 -24 -56 -37 -24 -31 -51 -128 -105 -373
-118 -544 -175 -779 -191 -797 -27 -30 -55 -21 -133 43 -211 174 -342 224
-615 236 -356 15 -647 -90 -876 -316 -185 -184 -367 -499 -453 -784 -64 -213
-71 -275 -71 -637 1 -320 1 -326 27 -422 52 -189 140 -343 268 -468 181 -177
427 -263 700 -246 226 15 388 67 570 185 41 27 73 41 90 39 22 -3 26 -9 32
-52 12 -84 34 -98 180 -109 68 -5 193 -7 278 -4 171 5 213 16 248 63 38 54 52
116 292 1234 49 228 172 795 274 1260 210 962 216 991 216 1071 0 46 -5 63
-23 85 -32 37 -80 42 -372 43 -182 0 -250 -3 -280 -14z m-925 -1556 c117 -41
209 -127 276 -260 92 -183 104 -364 42 -634 -42 -185 -133 -393 -224 -514
-102 -135 -287 -231 -446 -231 -249 0 -432 177 -477 461 -20 125 17 418 75
595 59 179 183 386 288 481 133 119 308 157 466 102z"/>
<path d="M79225 20712 c-22 -11 -48 -33 -57 -49 -19 -33 -108 -460 -108 -518
0 -27 8 -44 28 -65 37 -37 101 -43 414 -37 260 4 270 6 307 68 39 63 110 379
114 500 1 52 -2 62 -26 87 l-27 27 -303 3 c-279 2 -305 1 -342 -16z"/>
<path d="M76243 20580 c-27 -11 -600 -351 -660 -392 -57 -39 -90 -98 -109
-199 -20 -108 -48 -172 -91 -210 -49 -42 -75 -51 -180 -59 -104 -7 -124 -18
-154 -85 -27 -61 -69 -277 -69 -354 0 -60 4 -74 25 -99 27 -32 90 -52 161 -52
47 0 92 -25 100 -54 9 -36 -11 -151 -83 -471 -195 -877 -227 -1095 -188 -1264
58 -246 265 -394 587 -421 131 -11 358 -5 446 11 68 14 125 65 142 129 27 99
70 328 70 370 0 52 -20 87 -59 101 -14 6 -81 14 -148 18 -132 9 -168 22 -207
74 -18 25 -21 42 -20 130 1 88 12 156 87 504 144 671 166 765 192 804 35 54
71 66 224 74 137 7 170 15 204 53 22 24 74 226 89 348 20 153 -3 178 -180 194
-109 9 -127 14 -159 43 -17 15 -23 32 -23 61 -1 23 27 183 61 356 40 201 60
325 56 342 -14 53 -57 71 -114 48z"/>
<path d="M675 20235 c-349 -57 -522 -167 -580 -369 -26 -88 -17 -252 17 -326
50 -109 153 -195 296 -247 114 -42 196 -53 427 -60 240 -6 373 4 497 38 274
76 444 297 407 529 -46 290 -306 436 -794 446 -126 2 -207 -1 -270 -11z m488
-356 c186 -37 241 -70 241 -145 0 -41 -24 -69 -86 -100 -95 -48 -165 -58 -408
-58 -204 0 -233 2 -310 23 -132 35 -170 67 -170 144 0 66 41 96 172 127 182
43 376 46 561 9z"/>
<path d="M81220 19789 c-281 -16 -533 -93 -725 -222 -136 -91 -280 -267 -340
-415 -30 -74 -31 -111 -5 -145 32 -40 58 -44 530 -74 121 -7 136 0 255 122 75
77 100 96 150 115 75 28 192 36 293 20 104 -17 146 -35 187 -82 80 -94 86
-231 14 -312 -61 -70 -126 -86 -534 -131 -366 -40 -497 -63 -645 -111 -153
-49 -258 -112 -360 -214 -138 -138 -208 -294 -230 -517 -43 -425 181 -775 567
-885 92 -26 263 -30 383 -9 167 30 368 115 470 201 26 21 60 44 75 50 24 9 30
8 44 -12 9 -13 24 -43 33 -68 24 -62 77 -106 145 -120 35 -8 139 -11 291 -8
201 3 242 6 269 21 17 9 35 23 40 29 4 7 8 144 8 303 1 339 4 364 99 795 137
623 151 718 143 924 -3 97 -10 149 -27 201 -83 262 -255 419 -532 490 -191 48
-386 66 -598 54z m189 -1625 c29 -24 31 -30 31 -92 -1 -250 -247 -514 -512
-551 -111 -15 -209 14 -288 85 -56 51 -80 106 -80 187 0 120 42 185 157 245
129 66 321 120 503 141 135 15 155 14 189 -15z"/>
<path d="M42262 19779 c-108 -16 -206 -54 -370 -143 -87 -47 -165 -86 -174
-86 -21 0 -34 18 -43 57 -8 41 -38 79 -78 101 -28 15 -63 17 -272 17 -132 0
-257 -4 -277 -8 -56 -12 -93 -53 -116 -129 -46 -149 -503 -2386 -505 -2471 -1
-63 1 -70 30 -99 31 -31 31 -31 185 -40 175 -11 409 -5 453 12 48 18 74 50 94
115 11 34 54 227 95 429 145 695 251 1143 295 1241 70 153 211 309 335 370
169 84 360 56 416 -61 21 -42 22 -56 17 -152 -4 -66 -23 -192 -51 -327 -189
-928 -287 -1421 -292 -1473 -9 -79 7 -119 53 -139 44 -18 314 -28 486 -18 195
11 214 31 266 285 64 311 281 1278 301 1345 53 172 196 401 304 487 105 84
232 119 353 98 36 -6 78 -17 93 -25 67 -35 106 -120 97 -210 -3 -27 -82 -417
-177 -865 -217 -1033 -217 -1031 -166 -1079 28 -27 155 -40 371 -41 257 0 327
19 358 99 9 22 57 230 106 463 50 232 136 639 192 903 l103 480 0 185 c0 175
-1 189 -27 265 -67 200 -226 347 -437 402 -93 24 -354 24 -470 0 -189 -41
-325 -104 -510 -237 -69 -50 -135 -93 -148 -96 -28 -8 -51 12 -102 86 -72 106
-178 189 -285 225 -114 38 -358 54 -503 34z"/>
<path d="M49601 19778 c-125 -17 -253 -74 -353 -155 -25 -21 -91 -80 -146
-130 -99 -92 -100 -93 -105 -65 -3 16 -2 46 3 68 5 21 10 67 10 102 0 57 -3
67 -29 93 l-29 29 -277 0 c-309 0 -327 -3 -365 -66 -30 -48 -48 -129 -255
-1129 -330 -1596 -305 -1452 -257 -1506 26 -29 35 -32 122 -41 52 -5 187 -8
300 -6 230 5 265 13 300 70 28 45 32 63 100 393 100 485 225 987 280 1119 85
202 277 404 476 498 66 32 74 33 199 34 72 1 144 2 162 3 56 2 89 43 178 220
110 220 137 286 138 338 1 76 -44 106 -190 128 -108 16 -166 17 -262 3z"/>
<path d="M58475 19778 c-328 -20 -619 -151 -851 -382 -241 -241 -395 -542
-460 -901 -26 -140 -26 -464 -1 -587 66 -325 243 -612 479 -775 149 -103 325
-176 503 -209 134 -24 402 -15 545 19 380 91 627 258 815 553 103 161 111 236
30 270 -43 18 -439 84 -502 84 -78 -1 -123 -28 -186 -112 -112 -152 -271 -238
-442 -238 -189 0 -349 98 -430 265 -35 71 -65 170 -65 213 0 36 27 80 63 99
30 17 92 18 842 23 761 5 812 6 847 23 51 26 75 80 88 197 13 124 13 433 0
540 -31 251 -121 447 -285 619 -143 149 -310 243 -520 292 -57 13 -308 17
-470 7z m215 -589 c182 -29 281 -130 328 -334 33 -141 34 -153 22 -189 -24
-74 -109 -83 -658 -69 l-314 8 -25 29 c-21 25 -24 36 -19 72 26 189 175 377
356 448 106 42 202 53 310 35z"/>
<path d="M64665 19784 c-209 -23 -394 -91 -560 -205 -38 -26 -88 -55 -109 -64
-37 -16 -41 -16 -52 0 -7 9 -15 40 -19 68 -10 70 -28 113 -57 129 -17 10 -87
13 -293 13 -232 0 -275 -2 -307 -17 -43 -19 -72 -61 -92 -133 -21 -71 -383
-1824 -460 -2226 -70 -362 -64 -370 270 -377 224 -5 354 7 394 36 38 29 67 88
89 182 11 47 63 299 116 560 102 505 152 715 208 872 80 223 203 378 389 490
98 58 175 80 284 81 81 1 98 -3 149 -27 94 -46 131 -123 127 -266 -1 -64 -71
-409 -267 -1326 -52 -243 -95 -456 -95 -473 0 -18 7 -46 16 -62 27 -53 65 -62
295 -67 218 -5 356 7 396 34 62 40 67 58 232 845 231 1094 214 999 213 1194 0
139 -4 184 -21 248 -65 245 -226 405 -467 467 -78 20 -290 33 -379 24z"/>
<path d="M78265 19779 c-171 -25 -286 -84 -473 -241 -91 -77 -118 -91 -128
-65 -2 7 -6 55 -7 106 -2 87 -4 94 -29 116 -37 32 -109 38 -365 33 -272 -5
-298 -17 -337 -153 -37 -127 -496 -2368 -503 -2455 -5 -71 -4 -78 19 -105 25
-29 26 -29 184 -38 182 -10 427 -3 470 13 71 27 92 67 129 243 56 268 239
1067 262 1147 79 276 278 543 477 640 120 59 190 74 314 66 121 -7 153 2 201
60 31 37 170 335 206 441 40 116 -20 171 -214 193 -98 11 -122 11 -206 -1z"/>
<path d="M85408 19778 c-439 -27 -808 -250 -1065 -645 -263 -403 -344 -962
-203 -1394 142 -434 482 -730 935 -814 124 -24 400 -16 530 14 369 86 617 244
802 512 132 193 147 271 58 317 -28 14 -442 82 -502 82 -71 0 -122 -30 -177
-105 -166 -226 -434 -307 -662 -199 -67 31 -148 104 -189 169 -70 108 -107
267 -76 323 7 13 29 31 49 40 33 15 119 18 842 22 780 5 806 6 844 25 52 26
73 70 87 176 15 114 15 475 0 576 -37 254 -132 451 -297 617 -131 130 -298
226 -470 267 -97 24 -295 30 -506 17z m212 -589 c134 -21 244 -99 290 -203 23
-51 70 -239 70 -279 0 -46 -26 -84 -67 -99 -51 -18 -874 -13 -913 5 -45 22
-54 59 -35 135 50 202 211 371 406 426 95 27 156 30 249 15z"/>
<path d="M88135 19783 c-332 -28 -586 -140 -790 -347 -73 -73 -99 -108 -132
-176 -66 -134 -78 -191 -78 -370 1 -144 3 -161 29 -235 73 -209 192 -327 437
-430 219 -92 375 -153 539 -210 273 -94 333 -132 361 -225 36 -119 -94 -245
-293 -285 -253 -50 -498 41 -664 247 -112 140 -108 139 -386 94 -296 -49 -358
-63 -385 -88 -49 -46 -20 -158 80 -311 171 -262 442 -439 770 -502 120 -23
365 -34 587 -25 207 8 268 19 417 71 302 107 496 274 617 530 57 121 76 191
83 315 7 126 -12 223 -67 332 -74 146 -197 269 -349 350 -80 42 -366 147 -685
251 -199 65 -231 79 -284 119 -114 86 -65 250 93 316 61 26 225 39 322 26 165
-22 246 -64 370 -194 91 -96 109 -103 221 -92 124 13 366 58 444 82 l78 25 0
82 c0 70 -4 91 -29 144 -41 87 -99 169 -165 235 -150 150 -386 245 -663 268
-117 9 -385 11 -478 3z"/>
<path d="M38815 19765 c-254 -47 -520 -188 -663 -352 -103 -120 -192 -283
-192 -353 0 -79 42 -92 347 -112 335 -22 327 -23 453 97 82 78 140 113 235
141 123 36 298 12 381 -51 106 -81 114 -294 15 -365 -72 -51 -160 -68 -606
-115 -275 -30 -410 -54 -545 -97 -175 -56 -287 -124 -397 -242 -85 -91 -150
-215 -184 -351 -32 -127 -32 -353 -1 -470 75 -277 273 -481 540 -554 257 -70
578 -6 835 168 83 55 120 69 141 52 8 -7 26 -36 41 -66 52 -107 106 -125 374
-125 347 1 387 15 384 133 -12 497 -9 535 77 923 65 290 134 632 156 769 72
445 -61 727 -421 896 -164 77 -198 82 -565 85 -250 2 -343 0 -405 -11z m433
-1608 c23 -23 27 -35 25 -75 -5 -126 -85 -295 -187 -397 -133 -131 -334 -196
-483 -156 -111 30 -191 128 -200 244 -10 120 26 190 131 254 134 82 461 165
629 159 48 -2 62 -7 85 -29z"/>
<path d="M46230 19775 c-8 -2 -49 -9 -90 -15 -337 -55 -638 -270 -791 -565
-60 -116 -53 -172 27 -214 26 -13 145 -26 384 -41 207 -14 245 -6 295 57 17
20 58 65 91 99 72 73 118 91 259 101 253 17 395 -75 395 -256 -1 -121 -56
-191 -177 -224 -32 -9 -193 -30 -358 -47 -452 -46 -607 -77 -788 -155 -112
-48 -181 -92 -252 -160 -77 -75 -132 -159 -178 -273 -98 -244 -90 -509 21
-744 98 -208 252 -335 480 -395 79 -21 121 -25 227 -26 207 -1 350 42 567 172
62 37 121 70 131 74 29 11 54 -9 98 -78 31 -49 51 -69 87 -87 45 -22 56 -23
302 -23 292 0 319 6 346 70 13 31 13 55 3 168 -14 156 -7 374 16 507 9 52 52
255 96 450 115 518 157 787 144 925 -24 265 -167 461 -430 590 -166 82 -204
88 -570 91 -176 1 -327 1 -335 -1z m370 -1605 c39 -39 18 -194 -41 -313 -92
-186 -253 -303 -463 -337 -134 -21 -275 40 -327 142 -25 49 -35 150 -20 204
33 121 154 203 390 264 131 34 279 58 364 59 64 1 80 -2 97 -19z"/>
<path d="M50966 19769 c-379 -58 -680 -268 -840 -586 -37 -74 -45 -127 -26
-164 24 -44 63 -51 458 -80 196 -14 229 -6 289 69 99 126 154 164 264 182 214
34 382 -15 441 -129 56 -107 30 -243 -57 -303 -59 -41 -130 -54 -455 -88 -444
-46 -602 -77 -783 -155 -119 -51 -184 -93 -261 -171 -86 -85 -142 -180 -193
-329 -38 -110 -38 -110 -38 -275 0 -143 3 -176 23 -245 108 -376 379 -579 772
-578 204 0 314 33 550 167 77 44 146 76 162 76 22 0 35 -11 67 -59 50 -73 91
-108 139 -118 20 -4 145 -8 277 -8 277 1 304 6 331 71 14 33 14 53 3 156 -23
219 -1 465 67 768 95 421 115 515 139 643 73 400 69 561 -20 738 -70 139 -191
251 -360 334 -166 82 -204 88 -570 91 -176 1 -346 -2 -379 -7z m410 -1602 c24
-21 27 -31 26 -74 -3 -74 -27 -158 -73 -252 -95 -193 -300 -322 -513 -322 -68
-1 -87 4 -142 31 -74 36 -119 86 -139 154 -47 157 27 294 196 364 156 65 403
120 546 121 62 1 76 -2 99 -22z"/>
<path d="M73180 19773 c-314 -49 -522 -152 -712 -352 -136 -142 -203 -320
-201 -536 2 -205 61 -354 194 -487 66 -66 92 -84 190 -131 142 -68 410 -176
637 -256 246 -87 305 -119 339 -184 18 -35 19 -93 4 -140 -15 -45 -88 -112
-154 -142 -137 -62 -438 -58 -579 8 -85 39 -130 79 -205 178 -123 164 -115
162 -410 114 -316 -52 -347 -60 -379 -98 -33 -39 -28 -81 21 -184 67 -142 198
-301 333 -404 260 -197 661 -281 1145 -238 175 15 290 41 418 93 166 67 259
126 370 236 103 101 168 199 214 320 119 314 69 572 -151 794 -144 144 -317
225 -814 381 -331 104 -389 136 -420 229 -25 75 33 170 135 220 98 47 282 56
430 19 105 -26 189 -78 268 -165 82 -90 109 -108 166 -108 92 0 501 74 552
100 53 28 66 71 44 147 -62 211 -241 404 -464 497 -190 80 -304 96 -661 95
-157 -1 -296 -4 -310 -6z"/>
<path d="M69558 19721 c-66 -10 -99 -38 -126 -106 -34 -83 -232 -953 -353
-1550 -59 -288 -64 -319 -63 -435 2 -150 23 -240 89 -377 82 -168 200 -266
382 -315 62 -16 109 -21 228 -21 234 -2 335 30 633 200 153 87 154 87 166 -9
9 -66 30 -106 62 -118 14 -6 141 -11 282 -13 374 -3 361 -12 442 329 62 262
464 2036 491 2163 32 156 24 207 -39 237 -28 13 -80 17 -276 21 -326 7 -387
-5 -428 -88 -21 -42 -37 -104 -128 -509 -176 -782 -244 -1042 -309 -1175 -136
-282 -337 -445 -547 -445 -102 0 -164 34 -207 115 -20 36 -22 55 -21 175 l0
135 127 555 c252 1106 256 1131 223 1183 -10 14 -32 31 -49 37 -38 13 -509 22
-579 11z"/>
<path d="M79090 19724 c-89 -17 -127 -49 -154 -131 -22 -66 -492 -2327 -506
-2436 -13 -97 -6 -132 32 -156 33 -21 216 -33 418 -29 264 6 292 21 334 184
23 90 474 2255 491 2355 13 81 10 137 -10 169 -4 7 -24 19 -44 28 -29 13 -83
16 -286 18 -137 1 -261 0 -275 -2z"/>
<path d="M299 18750 c-129 -15 -199 -65 -206 -147 -5 -64 17 -98 109 -166 95
-71 194 -174 250 -262 78 -121 161 -177 241 -159 110 23 146 113 97 243 -25
68 -23 82 17 108 24 16 63 19 383 24 401 7 432 12 503 78 35 33 41 44 44 92 4
45 1 60 -19 89 -34 51 -115 88 -218 100 -99 11 -1104 11 -1201 0z"/>
<path d="M1025 17735 c-226 -49 -365 -169 -409 -353 -8 -31 -17 -82 -21 -113
-8 -73 -31 -97 -74 -79 -17 7 -33 20 -35 29 -3 9 -12 84 -20 166 -21 206 -41
257 -116 295 -68 35 -180 17 -213 -33 -39 -61 -47 -117 -49 -352 -2 -249 4
-294 49 -354 50 -65 182 -103 528 -152 222 -31 307 -16 355 64 33 54 27 111
-25 215 -25 50 -48 105 -51 121 -14 68 23 143 86 176 109 56 319 24 372 -57
59 -90 23 -164 -134 -274 -93 -66 -111 -91 -111 -148 0 -55 29 -98 86 -125
136 -66 347 33 450 210 89 153 79 374 -24 528 -127 190 -399 290 -644 236z"/>
<path d="M216 16510 c-41 -13 -75 -48 -100 -100 -19 -42 -21 -65 -24 -365 -3
-345 2 -394 45 -446 36 -42 74 -59 133 -59 61 0 100 19 133 62 38 52 48 93 57
252 10 158 20 186 64 186 12 0 84 -30 161 -66 303 -143 541 -220 763 -249 67
-9 172 10 215 39 91 62 103 171 25 243 -51 48 -151 75 -431 118 -219 33 -430
114 -649 248 -211 130 -309 164 -392 137z"/>
<path d="M540 15205 c-196 -39 -371 -163 -431 -303 -31 -71 -42 -171 -30 -254
29 -190 142 -302 371 -371 272 -82 563 -88 847 -17 203 51 334 144 404 286 33
66 34 73 34 184 0 111 -1 117 -34 183 -65 129 -220 245 -387 287 -69 18 -110
20 -393 19 -217 -1 -336 -5 -381 -14z m618 -331 c154 -22 208 -50 238 -121 19
-44 18 -47 -17 -88 -37 -42 -105 -65 -265 -90 -190 -30 -519 -4 -622 49 -60
31 -79 99 -44 158 27 45 120 86 222 97 143 14 374 12 488 -5z"/>
<path d="M1020 13998 c-55 -29 -76 -68 -91 -173 -13 -92 -5 -262 15 -310 16
-39 64 -80 111 -95 68 -23 164 8 200 64 67 102 63 408 -7 483 -52 57 -151 70
-228 31z"/>
<path d="M63075 13393 c-740 -51 -1305 -437 -1635 -1118 -167 -343 -249 -749
-250 -1228 0 -362 102 -731 277 -996 76 -115 234 -271 346 -340 174 -107 406
-184 638 -211 133 -16 432 -8 549 13 534 99 984 425 1255 908 113 200 147 328
101 378 -35 39 -198 77 -456 106 -190 21 -251 20 -284 -6 -14 -11 -56 -79 -92
-151 -101 -198 -202 -314 -370 -424 -154 -101 -293 -140 -463 -131 -277 14
-513 184 -611 439 -39 100 -59 230 -67 428 -13 335 47 636 183 920 229 478
563 707 1004 687 314 -15 464 -117 573 -390 49 -124 75 -162 124 -178 52 -17
317 -6 473 21 188 31 199 35 216 76 24 57 -3 202 -69 374 -206 543 -777 868
-1442 823z"/>
<path d="M36664 13330 c-123 -8 -165 -24 -196 -77 -19 -33 -67 -232 -184 -762
-46 -212 -91 -396 -100 -408 -24 -38 -54 -28 -134 43 -135 119 -226 170 -372
208 -411 107 -764 24 -1085 -255 -265 -229 -483 -647 -548 -1049 -21 -134 -21
-645 0 -757 64 -336 272 -599 569 -718 116 -47 214 -65 359 -65 205 0 333 33
545 142 73 37 135 68 138 68 3 0 30 -26 59 -57 53 -57 53 -57 126 -64 106 -11
393 -10 468 1 122 17 143 51 205 330 152 687 695 3213 700 3255 7 66 -11 114
-51 137 -54 32 -254 43 -499 28z m-1031 -1600 c126 -48 239 -182 293 -347 27
-83 29 -98 29 -253 0 -121 -5 -187 -18 -250 -25 -115 -78 -273 -123 -362 -206
-412 -625 -546 -879 -281 -88 92 -165 285 -165 415 0 211 59 481 145 661 109
230 263 386 426 432 78 21 217 15 292 -15z"/>
<path d="M56069 13330 c-161 -13 -196 -34 -230 -137 -11 -32 -60 -247 -110
-478 -134 -627 -143 -656 -203 -641 -14 3 -53 31 -86 61 -160 142 -320 211
-544 235 -131 15 -300 1 -441 -35 -525 -133 -957 -738 -1041 -1457 -20 -171
-14 -431 11 -548 122 -554 451 -840 964 -840 192 0 325 36 527 141 52 27 103
49 115 49 28 0 57 -16 105 -60 41 -37 42 -38 150 -45 169 -12 430 -1 482 20
54 22 85 72 111 181 21 84 649 2973 707 3254 38 181 38 224 -1 260 -13 12 -43
26 -67 30 -68 13 -343 19 -449 10z m-1044 -1600 c47 -18 76 -40 135 -99 174
-176 223 -344 186 -627 -62 -469 -257 -781 -553 -880 -68 -23 -89 -26 -171
-22 -81 5 -102 10 -167 42 -136 67 -224 187 -266 362 -38 159 -13 424 60 643
88 263 234 475 381 555 112 61 276 72 395 26z"/>
<path d="M40723 13320 c-70 -16 -111 -62 -137 -155 -18 -60 -665 -3149 -695
-3315 -34 -189 -27 -237 42 -259 19 -7 145 -12 307 -13 265 -3 277 -2 323 19
40 19 51 30 71 75 34 76 730 3438 730 3529 1 80 -14 102 -79 118 -50 12 -511
14 -562 1z"/>
<path d="M43493 13320 c-81 -19 -112 -68 -145 -229 -10 -53 -167 -805 -348
-1671 -181 -866 -333 -1610 -339 -1652 -14 -104 -1 -145 54 -173 39 -20 60
-20 1395 -20 1468 0 1409 -2 1449 54 25 34 52 132 86 309 40 210 33 251 -48
273 -30 8 -304 12 -982 13 -919 1 -941 1 -980 21 -37 19 -40 23 -43 68 -5 77
130 714 168 792 41 85 -21 79 970 85 818 5 877 6 908 23 18 10 42 32 52 50 23
36 74 245 96 391 15 92 15 105 0 139 -31 75 14 71 -941 77 -664 4 -855 8 -872
18 -46 26 -44 55 23 362 68 312 86 356 154 384 36 14 130 16 823 17 430 0 835
4 900 8 182 12 197 31 253 307 54 270 46 326 -54 354 -44 12 -2529 12 -2579 0z"/>
<path d="M73026 13320 c-35 -11 -73 -45 -92 -83 -22 -41 -73 -276 -394 -1827
-330 -1591 -339 -1635 -340 -1708 0 -110 24 -121 283 -129 116 -3 222 -1 267
5 66 10 78 15 102 42 14 18 40 71 57 118 33 88 54 122 77 122 8 0 58 -41 111
-90 140 -130 218 -179 349 -222 141 -47 245 -62 397 -56 204 8 387 71 586 202
283 184 478 459 611 855 74 221 91 332 97 616 6 290 -6 394 -61 560 -59 174
-115 273 -220 384 -109 115 -260 198 -443 243 -232 57 -564 8 -764 -112 -76
-47 -102 -48 -132 -8 l-21 28 21 77 c46 173 173 795 175 858 2 68 -8 92 -45
113 -28 15 -67 17 -312 19 -154 1 -293 -2 -309 -7z m1055 -1572 c129 -64 222
-175 272 -325 35 -105 42 -188 28 -314 -44 -389 -174 -711 -353 -868 -123
-108 -308 -166 -433 -135 -118 28 -257 148 -318 274 -49 100 -67 174 -74 300
-9 172 36 419 111 605 66 164 207 343 338 429 86 57 156 77 264 73 82 -3 99
-7 165 -39z"/>
<path d="M79251 13318 c-79 -22 -109 -65 -141 -200 -70 -300 -692 -3328 -697
-3393 -5 -76 -4 -83 19 -109 23 -27 32 -30 124 -37 146 -12 375 -11 436 2 81
18 110 56 148 197 11 43 40 82 61 82 5 0 45 -33 87 -73 225 -214 420 -297 694
-297 195 0 367 43 553 138 374 193 678 639 780 1146 33 169 45 290 45 473 0
252 -34 430 -115 602 -151 317 -389 483 -752 523 -208 23 -477 -35 -647 -140
-78 -48 -126 -45 -126 10 0 11 36 192 80 402 91 438 112 556 104 596 -9 44
-47 73 -107 81 -76 11 -506 9 -546 -3z m998 -1547 c261 -81 389 -359 337 -731
-48 -346 -156 -603 -320 -765 -225 -222 -489 -233 -689 -30 -61 62 -98 127
-133 235 -25 77 -28 98 -27 215 3 246 49 458 143 650 113 232 250 369 429 426
75 24 183 24 260 0z"/>
<path d="M300 13154 c-136 -21 -209 -65 -229 -139 -22 -85 18 -154 113 -196
50 -23 60 -23 531 -30 452 -7 557 -14 605 -39 30 -16 50 -51 50 -88 0 -48 -40
-83 -140 -121 -119 -46 -155 -66 -178 -98 -58 -84 -23 -185 80 -227 49 -21
195 -21 273 -1 132 35 244 124 303 241 42 85 56 152 49 251 -6 98 -40 179
-107 256 -78 89 -229 163 -377 186 -66 10 -909 14 -973 5z"/>
<path d="M50285 13151 c-36 -15 -639 -382 -663 -405 -42 -37 -70 -98 -96 -210
-31 -127 -56 -190 -84 -205 -11 -6 -75 -19 -142 -30 -131 -21 -161 -34 -185
-82 -22 -41 -85 -330 -85 -386 0 -53 24 -98 59 -112 14 -5 61 -11 104 -14 95
-5 130 -26 135 -79 2 -19 -46 -266 -107 -549 -148 -695 -171 -816 -178 -939
-15 -273 86 -457 307 -563 113 -53 186 -72 341 -88 98 -10 139 -9 264 5 81 9
162 23 179 30 72 30 98 97 151 378 35 188 21 206 -176 219 -144 10 -188 24
-223 72 -18 25 -21 42 -19 122 1 51 11 142 23 202 54 271 213 1000 230 1056
34 108 68 127 250 137 142 8 160 12 197 52 36 38 107 352 101 444 -5 70 -30
85 -165 95 -142 11 -159 16 -184 47 -19 24 -21 36 -16 97 3 39 28 177 56 308
52 244 64 370 39 395 -13 13 -82 15 -113 3z"/>
<path d="M65996 12379 c-187 -17 -419 -80 -571 -156 -194 -97 -364 -275 -456
-479 -51 -113 -36 -159 63 -189 73 -21 282 -38 436 -34 117 4 131 6 173 31 25
15 54 39 63 53 28 42 97 105 140 127 99 50 240 76 330 59 225 -42 333 -246
213 -403 -65 -85 -135 -103 -577 -148 -309 -32 -436 -53 -573 -96 -330 -103
-550 -334 -613 -644 -22 -110 -15 -301 15 -415 79 -299 287 -507 576 -576 126
-30 310 -23 440 16 117 34 266 107 387 188 l98 66 27 -47 c92 -163 60 -152
425 -152 l297 0 27 24 28 23 1 309 c2 346 -4 298 103 799 128 596 132 622 138
797 7 200 -5 272 -72 408 -62 125 -170 235 -289 297 -146 75 -336 125 -545
143 -128 11 -143 11 -284 -1z m235 -1627 c27 -22 28 -66 4 -170 -55 -238 -231
-416 -461 -468 -177 -39 -323 16 -388 148 -48 97 -28 208 52 292 54 55 98 81
209 119 238 83 530 122 584 79z"/>
<path d="M70790 12379 c-204 -17 -445 -83 -597 -164 -195 -103 -342 -258 -439
-462 -60 -128 -44 -174 71 -197 108 -22 328 -39 427 -34 121 7 206 48 297 144
45 47 84 76 130 98 62 29 73 31 176 31 90 -1 120 -5 168 -24 122 -48 191 -131
191 -226 0 -70 -29 -146 -70 -188 -56 -56 -149 -75 -564 -117 -249 -25 -406
-51 -525 -85 -353 -101 -586 -336 -651 -655 -21 -107 -15 -302 14 -405 109
-396 408 -621 801 -602 212 10 377 72 633 238 59 39 81 33 113 -30 29 -59 82
-106 132 -120 41 -12 328 -13 485 -2 152 10 142 -15 144 358 1 350 -7 287 118
863 97 446 115 559 123 740 9 221 -22 346 -121 484 -90 126 -210 215 -361 269
-109 39 -290 76 -421 87 -131 11 -137 11 -274 -1z m226 -1634 c22 -22 25 -31
19 -68 -47 -303 -220 -504 -483 -563 -168 -37 -308 12 -380 135 -23 39 -27 57
-27 121 0 57 6 84 22 115 29 54 97 117 158 148 118 59 446 135 588 136 71 1
80 -1 103 -24z"/>
<path d="M38420 12365 c-363 -53 -621 -171 -820 -374 -207 -211 -364 -479
-440 -751 -79 -284 -69 -633 26 -948 105 -346 323 -577 672 -713 423 -164 878
-113 1265 140 106 69 254 215 325 320 134 195 146 269 50 305 -52 20 -445 86
-508 86 -61 0 -91 -21 -180 -125 -115 -135 -230 -204 -376 -224 -187 -27 -374
66 -477 236 -41 68 -77 168 -77 215 0 46 31 91 76 114 37 18 76 19 834 24 770
5 796 6 835 25 59 29 83 80 96 206 18 165 15 446 -6 564 -45 254 -147 460
-309 621 -135 135 -300 220 -511 265 -120 26 -349 33 -475 14z m280 -595 c178
-70 282 -216 296 -414 4 -66 2 -87 -13 -116 -36 -70 -37 -70 -516 -70 -426 0
-458 2 -479 34 -14 20 -8 60 17 137 71 213 248 388 448 444 68 20 176 13 247
-15z"/>
<path d="M47340 12373 c-202 -30 -376 -75 -495 -128 -259 -115 -461 -347 -520
-597 -19 -83 -19 -267 0 -343 42 -164 163 -329 309 -420 94 -58 309 -150 634
-270 330 -121 324 -119 367 -156 66 -59 80 -111 46 -184 -21 -47 -92 -115
-150 -144 -97 -50 -287 -71 -416 -48 -179 33 -258 81 -366 223 -41 54 -91 110
-110 123 -31 21 -41 23 -124 18 -90 -6 -407 -56 -484 -77 -22 -6 -53 -21 -68
-34 -23 -20 -28 -32 -27 -68 4 -112 97 -265 263 -428 139 -137 238 -200 398
-253 233 -76 422 -101 716 -94 227 5 323 21 512 83 250 83 444 240 576 466
179 307 148 658 -80 888 -146 147 -322 231 -836 399 -291 94 -358 127 -393
192 -30 56 -26 122 11 178 52 79 197 118 397 108 189 -10 316 -67 427 -194 31
-35 66 -69 77 -75 70 -38 555 39 627 99 41 35 46 79 20 161 -46 138 -140 271
-253 357 -128 98 -339 175 -573 210 -91 14 -414 19 -485 8z"/>
<path d="M51825 12369 c-300 -41 -579 -164 -744 -329 -111 -112 -231 -305
-231 -374 0 -100 123 -138 455 -140 227 -1 234 1 351 123 117 122 236 164 399
142 99 -14 162 -42 213 -94 120 -123 83 -347 -63 -385 -57 -15 -284 -47 -545
-77 -454 -53 -650 -110 -832 -245 -168 -124 -274 -327 -308 -590 -66 -511 335
-937 853 -907 181 10 359 76 543 201 120 82 138 83 172 11 30 -63 47 -82 97
-109 37 -19 58 -21 271 -24 251 -4 334 5 370 39 23 22 23 22 17 238 -8 307 7
421 126 962 108 487 134 644 134 794 -1 198 -71 364 -213 505 -134 133 -285
205 -510 245 -113 20 -451 28 -555 14z m333 -1601 c32 -32 -7 -219 -70 -341
-60 -115 -150 -202 -270 -261 -163 -81 -282 -90 -399 -31 -129 66 -180 226
-115 358 60 124 187 185 511 247 195 36 324 47 343 28z"/>
<path d="M57860 12365 c-428 -59 -764 -246 -996 -554 -115 -154 -231 -406
-279 -606 -87 -361 -83 -636 11 -923 66 -202 155 -346 289 -470 180 -164 408
-265 699 -308 151 -22 439 -15 577 15 382 82 662 275 916 629 122 171 215 383
265 604 21 92 23 128 23 343 -1 220 -3 250 -27 360 -32 150 -81 281 -144 387
-57 95 -199 245 -289 305 -275 184 -679 268 -1045 218z m355 -620 c170 -45
288 -160 351 -345 28 -82 26 -356 -5 -497 -52 -245 -177 -488 -330 -641 -111
-111 -228 -162 -376 -162 -244 0 -415 123 -492 354 -25 75 -27 94 -27 251 -1
125 4 197 18 270 75 404 297 703 572 769 79 19 216 20 289 1z"/>
<path d="M69280 12373 c-191 -24 -373 -119 -538 -281 -130 -127 -126 -128
-117 17 l7 120 -29 30 c-40 40 -73 43 -358 39 -278 -4 -288 -6 -330 -93 -33
-69 -506 -2361 -513 -2487 -4 -82 -3 -88 20 -111 24 -24 32 -25 204 -32 216
-9 420 -1 467 19 61 25 58 14 222 781 72 335 126 549 164 652 121 327 334 556
576 618 33 9 121 19 196 23 101 6 143 12 162 24 46 31 173 272 228 437 35 103
36 121 4 159 -45 54 -245 101 -365 85z"/>
<path d="M76660 12360 c-176 -32 -352 -92 -500 -171 -396 -213 -678 -652 -745
-1157 -20 -151 -20 -461 0 -578 68 -390 262 -653 600 -814 227 -108 388 -148
630 -157 189 -6 341 15 509 71 345 115 605 313 802 607 309 463 371 1108 150
1575 -61 128 -116 205 -215 304 -173 173 -406 279 -711 325 -135 21 -388 18
-520 -5z m406 -609 c92 -18 162 -51 219 -103 107 -97 142 -190 155 -408 12
-211 -6 -353 -66 -520 -84 -236 -241 -450 -394 -540 -102 -60 -192 -83 -308
-78 -87 3 -105 7 -176 41 -102 49 -185 131 -244 244 -62 119 -75 189 -68 353
10 252 75 472 201 685 103 174 226 276 386 319 62 17 223 20 295 7z"/>
<path d="M82870 12360 c-208 -37 -448 -133 -619 -248 -228 -152 -433 -421
-531 -697 -95 -271 -143 -672 -106 -900 89 -548 412 -885 955 -996 141 -29
412 -36 561 -15 359 52 603 176 850 433 274 284 417 603 461 1022 58 563 -175
1056 -599 1270 -83 42 -242 94 -367 121 -146 32 -458 37 -605 10z m435 -615
c130 -34 236 -125 299 -258 54 -112 69 -191 63 -327 -11 -224 -58 -414 -147
-595 -182 -370 -469 -536 -758 -439 -97 32 -158 71 -221 140 -61 66 -96 138
-127 262 -35 136 -32 225 11 419 53 239 72 299 121 394 112 217 272 360 450
403 80 19 236 20 309 1z"/>
<path d="M576 11287 c-48 -27 -75 -62 -86 -113 -26 -111 62 -204 194 -204 89
0 175 56 192 126 11 42 -3 103 -30 138 -56 74 -188 100 -270 53z"/>
<path d="M1460 11294 c-73 -32 -110 -86 -110 -161 0 -161 233 -223 355 -94 27
29 30 39 30 99 0 55 -4 73 -24 100 -50 66 -168 92 -251 56z"/>
<path d="M1495 10571 c-132 -34 -190 -152 -125 -258 63 -103 268 -104 341 -2
31 44 36 123 11 169 -36 67 -148 111 -227 91z"/>
<path d="M170 10163 c-67 -25 -130 -165 -130 -290 0 -109 64 -198 180 -252 47
-22 69 -25 151 -26 l97 0 12 -53 c22 -97 100 -157 174 -132 70 23 126 94 126
160 l0 30 441 0 c430 0 442 0 470 21 89 63 75 195 -25 239 -39 18 -77 20 -387
25 -189 3 -377 8 -416 11 l-73 6 0 36 c0 62 -19 109 -56 141 -43 39 -86 40
-136 6 -37 -25 -42 -36 -77 -171 -6 -23 -18 -45 -27 -48 -29 -11 -90 -6 -112
10 -22 15 -23 20 -16 97 8 99 -8 146 -58 177 -32 19 -102 26 -138 13z"/>
<path d="M77 9187 c-21 -13 -47 -36 -57 -53 -24 -35 -26 -113 -5 -154 44 -85
190 -115 277 -57 98 66 104 184 12 253 -32 25 -48 29 -113 32 -66 3 -81 0
-114 -21z"/>
<path d="M492 9173 c-53 -26 -82 -68 -82 -119 0 -55 21 -89 71 -115 37 -18 64
-19 609 -19 513 0 573 2 596 16 35 24 54 65 54 120 0 40 -5 51 -37 84 l-38 37
-409 6 c-632 11 -725 9 -764 -10z"/>
<path d="M1460 8562 c-79 -26 -224 -96 -305 -147 -116 -72 -144 -72 -227 2
-128 113 -224 148 -386 141 -218 -10 -368 -103 -434 -266 -22 -55 -23 -67 -23
-392 0 -371 2 -388 60 -439 64 -56 64 -56 760 -56 689 0 707 1 774 52 62 48
80 141 38 204 -43 66 -165 102 -397 118 -83 5 -137 14 -158 25 -61 31 -69 86
-20 141 43 50 88 79 278 180 201 107 271 154 299 198 44 71 16 184 -56 228
-47 29 -134 34 -203 11z m-820 -397 c84 -43 104 -265 32 -338 -53 -53 -159
-55 -209 -4 -43 42 -55 152 -28 243 14 47 52 95 85 107 30 11 92 7 120 -8z"/>
</g>
</svg>
